<svg xmlns="http://www.w3.org/2000/svg" viewBox="0 0 140.007 32" role="img" aria-labelledby="title desc" >
  <title id="title">Obelus Wordmark Cloud</title>
  <desc id="desc">Obelus title-case wordmark outlined from Instrument Sans SemiBold.</desc>
  <g fill="#FCFCF8">
    <path d="M397.4000244140625 -10Q318.73333740234375 -10 252.566650390625 17.133331298828125Q186.39996337890625 44.26666259765625 137.83328247070312 94.0333251953125Q89.2666015625 143.79998779296875 62.2999267578125 212.16665649414062Q35.333251953125 280.5333251953125 35.333251953125 363Q35.333251953125 472.20001220703125 81.53326416015625 554.8333435058594Q127.7332763671875 637.4666748046875 209.63330078125 683.7333374023438Q291.5333251953125 730 396.4000244140625 730Q503.2667236328125 730 584.8000793457031 683.7333374023438Q666.3334350585938 637.4666748046875 712.9001159667969 554.4666748046875Q759.466796875 471.4666748046875 759.466796875 362Q759.466796875 280.26666259765625 732.5001220703125 211.89999389648438Q705.533447265625 143.5333251953125 656.9667663574219 93.89999389648438Q608.4000854492188 44.26666259765625 542.1000671386719 17.133331298828125Q475.800048828125 -10 397.4000244140625 -10ZM396.4000244140625 99.2001953125Q463.13330078125 99.2001953125 513.9332580566406 132.93350219726562Q564.7332153320312 166.66680908203125 593.6998596191406 226.23342895507812Q622.66650390625 285.800048828125 622.66650390625 364Q622.66650390625 441.199951171875 594.1998596191406 499.13323974609375Q565.7332153320312 557.0665283203125 514.9332580566406 588.9331665039062Q464.13330078125 620.7998046875 396.4000244140625 620.7998046875Q329.40008544921875 620.7998046875 278.73345947265625 588.9331665039062Q228.06683349609375 557.0665283203125 200.10018920898438 499.63323974609375Q172.133544921875 442.199951171875 172.133544921875 364Q172.133544921875 284.800048828125 200.60018920898438 225.36676025390625Q229.06683349609375 165.9334716796875 279.73345947265625 132.56683349609375Q330.40008544921875 99.2001953125 396.4000244140625 99.2001953125Z" transform="translate(-1.5279 31.5676) scale(0.043243 -0.043243)"/>
    <path d="M360.60015869140625 -9.73333740234375Q287.8668212890625 -9.73333740234375 241.43350219726562 24.5333251953125Q195.00018310546875 58.79998779296875 184.33355712890625 119.13330078125L193.133544921875 120.39996337890625V0H65.333251953125V720H196.6668701171875V395.4000244140625L187.133544921875 397.66668701171875Q200.266845703125 454.4666748046875 248.56683349609375 487.23333740234375Q296.8668212890625 520 368.33349609375 520Q437.06683349609375 520 487.56683349609375 487.3666687011719Q538.0668334960938 454.73333740234375 565.7001647949219 395.73333740234375Q593.33349609375 336.73333740234375 593.33349609375 257Q593.33349609375 176.26666259765625 564.33349609375 116.26666259765625Q535.33349609375 56.26666259765625 483.33349609375 23.26666259765625Q431.33349609375 -9.73333740234375 360.60015869140625 -9.73333740234375ZM326.60003662109375 96.93353271484375Q385.7332763671875 96.93353271484375 421.39990234375 138.80014038085938Q457.0665283203125 180.666748046875 457.0665283203125 256.26666259765625Q457.0665283203125 331.59991455078125 421.0332336425781 372.4665222167969Q384.99993896484375 413.3331298828125 325.13336181640625 413.3331298828125Q266.73345947265625 413.3331298828125 230.43350219726562 371.83319091796875Q194.133544921875 330.333251953125 194.133544921875 254.73333740234375Q194.133544921875 179.666748046875 230.43350219726562 138.30014038085938Q266.73345947265625 96.93353271484375 326.60003662109375 96.93353271484375Z" transform="translate(32.3315 31.5676) scale(0.043243 -0.043243)"/>
    <path d="M297.06671142578125 -10Q215.26666259765625 -10 154.13330078125 23.76666259765625Q92.99993896484375 57.5333251953125 59.166595458984375 117.5333251953125Q25.333251953125 177.5333251953125 25.333251953125 255.5333251953125Q25.333251953125 334.26666259765625 59.03326416015625 393.76666259765625Q92.7332763671875 453.26666259765625 153.39996337890625 486.6333312988281Q214.066650390625 520 293.933349609375 520Q370.800048828125 520 427.3334045410156 488.26666259765625Q483.86676025390625 456.5333251953125 514.9334411621094 399.79998779296875Q546.0001220703125 343.066650390625 546.0001220703125 266.33331298828125Q546.0001220703125 251.93328857421875 545.1334533691406 239.63327026367188Q544.2667846679688 227.333251953125 542.2667846679688 215.59991455078125H105.86669921875V306.06671142578125H440.46649169921875L414.46649169921875 283.0001220703125Q414.46649169921875 353 382.033203125 387.833251953125Q349.59991455078125 422.66650390625 292.4666748046875 422.66650390625Q228.93341064453125 422.66650390625 192.70013427734375 379.3332214355469Q156.46685791015625 335.99993896484375 156.46685791015625 253.5999755859375Q156.46685791015625 172.13336181640625 192.70013427734375 129.73342895507812Q228.93341064453125 87.33349609375 297.4000244140625 87.33349609375Q336.86663818359375 87.33349609375 365.7999267578125 101.86679077148438Q394.73321533203125 116.40008544921875 408.79986572265625 146.86669921875H532.466796875Q507.466796875 73.933349609375 447.5001220703125 31.9666748046875Q387.533447265625 -10 297.06671142578125 -10Z" transform="translate(58.7099 31.5676) scale(0.043243 -0.043243)"/>
    <path d="M65.333251953125 0V720H196.6668701171875V0Z" transform="translate(82.8829 31.5676) scale(0.043243 -0.043243)"/>
    <path d="M230.59991455078125 -10Q177.66656494140625 -10 139.03323364257812 12.70001220703125Q100.39990234375 35.4000244140625 79.8665771484375 74.36669921875Q59.333251953125 113.3333740234375 59.333251953125 162.3333740234375V510H190.6668701171875V189.2000732421875Q190.6668701171875 142.9334716796875 213.66683959960938 119.8001708984375Q236.66680908203125 96.6668701171875 278.666748046875 96.6668701171875Q316.4000244140625 96.6668701171875 345.33331298828125 114.266845703125Q374.2666015625 131.8668212890625 391.3665771484375 163.30010986328125Q408.466552734375 194.7333984375 408.466552734375 235.4666748046875L421.466552734375 113Q396.466552734375 57.4666748046875 347.13323974609375 23.73333740234375Q297.7999267578125 -10 230.59991455078125 -10ZM411.9998779296875 0V120H408.466552734375V510H539.8001708984375V0Z" transform="translate(93.6937 31.5676) scale(0.043243 -0.043243)"/>
    <path d="M262.53338623046875 -10Q155.33331298828125 -10 91.99993896484375 34.600006103515625Q28.66656494140625 79.20001220703125 22.13323974609375 158.4666748046875H140.9334716796875Q146.466796875 120.46673583984375 177.70010375976562 100.70010375976562Q208.93341064453125 80.9334716796875 263.06671142578125 80.9334716796875Q311.66668701171875 80.9334716796875 335.4333190917969 96.16677856445312Q359.199951171875 111.40008544921875 359.199951171875 139.60003662109375Q359.199951171875 160.4666748046875 345.4999694824219 173.36663818359375Q331.79998779296875 186.2666015625 294.00006103515625 194.8665771484375L212.00006103515625 212.9332275390625Q126.5999755859375 231.66656494140625 85.7332763671875 269.89990234375Q44.8665771484375 308.13323974609375 44.8665771484375 366.7332763671875Q44.8665771484375 438.5999755859375 99.7332763671875 479.29998779296875Q154.5999755859375 520 251.800048828125 520Q348.0001220703125 520 405.8668212890625 479.6333312988281Q463.7335205078125 439.26666259765625 470.00018310546875 367.5333251953125H351.199951171875Q346.39996337890625 397.53326416015625 320.5333251953125 413.2998962402344Q294.66668701171875 429.0665283203125 248.800048828125 429.0665283203125Q206.40008544921875 429.0665283203125 184.90011596679688 415.69989013671875Q163.400146484375 402.333251953125 163.400146484375 377.86663818359375Q163.400146484375 357.73333740234375 180.33346557617188 344.9667053222656Q197.26678466796875 332.2000732421875 236.666748046875 322.86676025390625L325.466796875 303.0667724609375Q400.8668212890625 286.26678466796875 439.4335021972656 243.96676635742188Q478.00018310546875 201.666748046875 478.00018310546875 143.7333984375Q478.00018310546875 70.86669921875 421.5001525878906 30.433349609375Q365.0001220703125 -10 262.53338623046875 -10Z" transform="translate(119.3369 31.5676) scale(0.043243 -0.043243)"/>
  </g>
</svg>
